HIERARCHY
ROOT root
{
	OFFSET	0	13.1	24.9
	CHANNELS 6  Xposition Yposition Zposition Xrotation Yrotation Zrotation
	JOINT spine_1
	{
		OFFSET	0	9.99999	0
		CHANNELS 3  Xrotation Yrotation Zrotation
		JOINT spine_2
		{
			OFFSET	0	112	-10
			CHANNELS 3  Xrotation Yrotation Zrotation
			JOINT spine_3
			{
				OFFSET	0	206.5	19.3
				CHANNELS 3  Xrotation Yrotation Zrotation
				JOINT spine_4
				{
					OFFSET	0	110.4	14.6
					CHANNELS 3  Xrotation Yrotation Zrotation
					JOINT neck_1
					{
						OFFSET	0	71.8	-50.3
						CHANNELS 3  Xrotation Yrotation Zrotation
						JOINT neck_2
						{
							OFFSET	0	86.2	-25.8
							CHANNELS 3  Xrotation Yrotation Zrotation
							JOINT head_ee
							{
								OFFSET	0	179.8	-8.7
								CHANNELS 3  Xrotation Yrotation Zrotation
								End Site
								{
									OFFSET	1	0	0
								}
							}
						}
					}
					JOINT left_clavicle
					{
						OFFSET	-43.2	22.4	-70.8
						CHANNELS 3  Xrotation Yrotation Zrotation
						JOINT left_shoulder
						{
							OFFSET	-93.9	-5.79999	48.7
							CHANNELS 3  Xrotation Yrotation Zrotation
							JOINT left_elbow
							{
								OFFSET	-291.4	-30.8	15.2
								CHANNELS 3  Xrotation Yrotation Zrotation
								JOINT left_lowarm_twist
								{
									OFFSET	-110.7	-3.89999	13.6
									CHANNELS 3  Xrotation Yrotation Zrotation
									JOINT left_hand
									{
										OFFSET	-110.7	-3.89999	13.6
										CHANNELS 3  Xrotation Yrotation Zrotation
										JOINT left_ee
										{
											OFFSET	-80.8	-5.10001	12.1
											CHANNELS 3  Xrotation Yrotation Zrotation
											End Site
											{
												OFFSET	1	0	0
											}
										}
									}
								}
							}
						}
					}
					JOINT right_clavicle
					{
						OFFSET	43.2	22.4	-70.8
						CHANNELS 3  Xrotation Yrotation Zrotation
						JOINT right_shoulder
						{
							OFFSET	93.9	-5.79999	48.7
							CHANNELS 3  Xrotation Yrotation Zrotation
							JOINT right_elbow
							{
								OFFSET	291.4	-30.8	15.2
								CHANNELS 3  Xrotation Yrotation Zrotation
								JOINT right_lowarm_twist
								{
									OFFSET	110.7	-3.89999	13.6
									CHANNELS 3  Xrotation Yrotation Zrotation
									JOINT right_hand
									{
										OFFSET	110.7	-3.89999	13.6
										CHANNELS 3  Xrotation Yrotation Zrotation
										JOINT right_ee
										{
											OFFSET	80.8	-5.10001	12.1
											CHANNELS 3  Xrotation Yrotation Zrotation
											End Site
											{
												OFFSET	1	0	0
											}
										}
									}
								}
							}
						}
					}
				}
			}
		}
	}
	JOINT left_hip
	{
		OFFSET	-82.8	-127.5	0.300001
		CHANNELS 3  Xrotation Yrotation Zrotation
		JOINT left_knee
		{
			OFFSET	-28.2	-396.7	2.2
			CHANNELS 3  Xrotation Yrotation Zrotation
			JOINT left_ankle
			{
				OFFSET	-11.7	-411.3	35.4
				CHANNELS 3  Xrotation Yrotation Zrotation
				JOINT left_toes
				{
					OFFSET	0	-60	-88.6
					CHANNELS 3  Xrotation Yrotation Zrotation
					JOINT left_foot_ee
					{
						OFFSET	-22.5	-16.5	-42.2
						CHANNELS 3  Xrotation Yrotation Zrotation
						End Site
						{
							OFFSET	1	0	0
						}
					}
				}
			}
		}
	}
	JOINT right_hip
	{
		OFFSET	82.8	-127.5	0.300001
		CHANNELS 3  Xrotation Yrotation Zrotation
		JOINT right_knee
		{
			OFFSET	28.2	-396.7	2.2
			CHANNELS 3  Xrotation Yrotation Zrotation
			JOINT right_ankle
			{
				OFFSET	11.7	-411.3	35.4
				CHANNELS 3  Xrotation Yrotation Zrotation
				JOINT right_toes
				{
					OFFSET	0	-60	-88.6
					CHANNELS 3  Xrotation Yrotation Zrotation
					JOINT right_foot_ee
					{
						OFFSET	22.5	-16.5	-42.2
						CHANNELS 3  Xrotation Yrotation Zrotation
						End Site
						{
							OFFSET	1	0	0
						}
					}
				}
			}
		}
	}
}
MOTION
Frames: 16
Frame Time: 0.02
3508.03 735.547 -1518.25 -13.5736 69.5453 13.7853 2.12849 0.495932 0.199465 2.12838 0.482234 0.230618 2.13036 0.434855 0.310863 2.13055 0.478493 0.238284 -24.7757 18.6976 -2.39947 -28.0691 36.9032 8.56429 -0.0 0.0 -0.0 -4.42019 19.9082 -4.20878 -18.3254 -18.7803 74.1275 1.27176 -32.2093 0.367201 29.1733 0.0911659 -3.68556 0.307101 20.7793 10.2048 -0.0 0.0 -0.0 10.5792 19.975 -20.7057 -9.74118 26.7198 -60.874 1.23667 31.4908 -0.348683 23.9627 -0.213182 3.03136 5.73642 -30.1219 -49.2385 0.0 0.0 0.0 22.5256 3.9643 -6.458 -39.8184 -0.455252 5.97285 29.8825 26.2712 -4.12579 -36.601 0.0 0.0 -0.0 0.0 -0.0 4.65941 -14.7269 -0.897179 -9.92981 -0.279762 -1.49633 21.307 19.548 3.23082 12.5375 -0.0 -0.0 0.0 0.0 0.0 
3500.59 734.274 -1522.09 -11.1829 68.6877 11.4817 2.08616 0.31454 0.239029 2.08614 0.298692 0.258559 2.08751 0.249018 0.306692 2.0875 0.294329 0.263515 -25.4549 19.1226 -1.88502 -29.0138 37.4421 9.6139 -0.0 0.0 -0.0 -4.84079 20.4232 -4.70899 -19.455 -17.7081 74.7421 1.22437 -31.2363 0.342281 28.6893 0.105001 -3.62529 0.195489 21.6487 9.8529 -0.0 0.0 -0.0 10.9491 20.4868 -21.5038 -7.41237 27.6624 -60.9227 1.41788 35.0812 -0.448181 26.3107 -0.165569 3.32751 5.94299 -28.3268 -51.3024 0.0 0.0 0.0 23.6629 3.44496 -7.05547 -38.649 -0.38306 5.80822 28.4159 25.452 -3.93267 -37.4072 0.0 0.0 -0.0 0.0 -0.0 3.30651 -15.5517 -0.897603 -9.14237 -0.267094 -1.37616 22.0822 19.5246 3.33311 12.2176 -0.0 -0.0 0.0 0.0 0.0 
3494.73 730.732 -1525.42 -10.4497 68.2321 11.0601 2.04428 0.267982 0.328613 2.04431 0.246529 0.344999 2.04581 0.182299 0.382842 2.04569 0.240473 0.349247 -28.6177 19.1913 -1.00299 -32.7114 36.9351 11.7 -0.0 0.0 -0.0 -5.10803 20.7432 -5.02292 -20.4305 -17.7314 75.6954 1.1923 -30.5662 0.325808 27.9267 0.125766 -3.53009 0.181749 21.6857 9.7847 -0.0 0.0 -0.0 11.201 21.1266 -22.0259 -6.27989 28.398 -60.8776 1.7316 40.6189 -0.640903 25.665 -0.179874 3.24626 6.04938 -30.0885 -52.2244 0.0 0.0 0.0 24.1991 3.70877 -7.77011 -36.755 -0.273333 5.53864 29.0937 26.9026 -4.04951 -38.0427 0.0 0.0 -0.0 0.0 -0.0 2.71446 -13.8375 -1.0342 -10.0952 -0.282213 -1.52159 21.9052 21.192 3.35957 14.0719 -0.0 -0.0 0.0 0.0 0.0 
3485.66 730.859 -1527.28 -8.53235 67.479 9.02471 1.91654 0.512181 0.342964 1.91648 0.48932 0.374861 1.91973 0.415115 0.455669 1.91976 0.481869 0.384391 -28.688 19.3202 -0.367523 -32.8013 36.949 12.4018 -0.0 0.0 -0.0 -4.70815 20.8629 -4.40356 -21.0749 -16.8049 75.213 1.07416 -28.0171 0.267996 27.4956 0.136944 -3.47616 0.0949274 21.6211 9.24554 -0.0 0.0 -0.0 11.3881 21.2865 -22.4386 -5.42402 28.7764 -60.7412 1.89074 43.121 -0.747146 25.412 -0.185227 3.21439 6.03035 -29.9196 -52.0522 0.0 0.0 0.0 23.9421 2.9139 -7.86473 -31.1382 -0.0012099 4.72024 27.5564 28.2341 -3.89959 -38.3686 0.0 0.0 -0.0 0.0 -0.0 2.08769 -10.0268 -1.45215 -10.9092 -0.293213 -1.64601 22.744 19.8011 3.42823 13.9012 -0.0 -0.0 0.0 0.0 0.0 
3477.57 728.62 -1523.87 -8.70747 66.8574 9.16007 1.8736 0.455976 0.340869 1.87356 0.433361 0.369193 1.8764 0.360713 0.440445 1.87638 0.425745 0.377951 -28.4662 19.2401 -1.72773 -32.6219 37.297 11.0423 -0.0 0.0 -0.0 -4.65907 22.2324 -3.99326 -22.083 -15.4955 75.5375 1.06086 -27.722 0.261777 27.3287 0.141162 -3.45525 0.124834 21.8183 9.49541 -0.0 0.0 -0.0 11.6091 21.3833 -22.9347 -4.47685 28.6733 -60.2411 2.19716 47.4179 -0.964991 26.888 -0.152007 3.4 6.07712 -28.6808 -52.6231 0.0 0.0 0.0 25.0469 3.84203 -8.17046 -29.7353 0.0541138 4.51206 28.342 26.6911 -3.9543 -38.8168 0.0 0.0 -0.0 0.0 -0.0 1.65439 -11.6347 -1.12208 -9.40325 -0.271474 -1.41596 23.288 20.9846 3.53631 14.4064 -0.0 -0.0 0.0 0.0 0.0 
3465.17 735.27 -1523.51 -10.973 67.9661 11.5774 1.88549 0.363965 0.465707 1.88555 0.333594 0.487923 1.88843 0.241513 0.539467 1.88817 0.32368 0.494555 -27.9918 19.2092 -0.581909 -31.9433 36.8833 11.8411 -0.0 0.0 -0.0 -4.89298 22.249 -4.32306 -23.128 -16.6058 76.4578 1.03452 -27.1331 0.249643 26.3443 0.164801 -3.33172 0.129673 21.53 9.41832 -0.0 0.0 -0.0 12.1605 21.9135 -24.1536 -3.98644 28.6729 -59.6283 2.10777 46.231 -0.899797 26.1772 -0.168603 3.31072 6.12711 -28.6221 -53.1396 0.0 0.0 0.0 23.8105 1.12818 -7.65693 -21.256 0.278597 3.23133 26.5789 26.3142 -3.73138 -39.025 0.0 0.0 -0.0 0.0 -0.0 1.58303 -12.3129 -1.06273 -9.33771 -0.27039 -1.40596 20.5234 19.7229 3.13027 14.393 -0.0 -0.0 0.0 0.0 0.0 
3451.73 731.876 -1527.2 -11.0743 69.1442 11.2896 1.86201 0.198311 0.531163 1.86215 0.164111 0.542705 1.86373 0.0647392 0.563267 1.86332 0.152883 0.545974 -27.3414 19.1875 -0.52282 -31.1582 36.8795 11.6166 -0.0 0.0 -0.0 -4.88351 22.0813 -4.35223 -24.4855 -16.5711 76.4917 1.01704 -26.7389 0.241726 25.6344 0.180528 -3.24241 0.113854 21.4611 9.29897 -0.0 0.0 -0.0 12.8716 22.7855 -25.7181 -2.56692 28.6288 -59.0357 2.00353 44.779 -0.825434 26.1797 -0.168547 3.31103 6.15084 -28.0293 -53.4248 0.0 0.0 0.0 24.9832 -1.44316 -7.48361 -12.9037 0.312682 1.95139 26.4277 26.3635 -3.71398 -39.1687 0.0 0.0 -0.0 0.0 -0.0 1.11021 -11.808 -0.8432 -9.56425 -0.274086 -1.44052 18.8297 19.6328 2.89585 14.5562 -0.0 -0.0 0.0 0.0 0.0 
3447.14 726.456 -1531.94 -10.9191 70.4305 11.1647 1.71544 -0.0592185 0.515918 1.71558 -0.0919273 0.511104 1.71475 -0.182839 0.486054 1.71444 -0.103782 0.50883 -25.5596 19.4026 -0.599993 -29.1476 37.4509 11.0025 -0.0 0.0 -0.0 -4.5607 19.7292 -4.46208 -25.1236 -16.6062 77.4576 0.927517 -24.6767 0.202886 25.1306 0.191017 -3.17891 -0.0187645 21.797 8.63762 -0.0 0.0 -0.0 13.3616 23.8092 -26.7579 -0.795053 28.8077 -58.6169 2.05721 45.536 -0.863495 27.1405 -0.145846 3.43167 6.09433 -26.9907 -52.8791 0.0 0.0 0.0 23.7909 -3.24708 -7.71758 -8.71467 0.259521 1.31097 24.7417 27.0392 -3.51954 -39.3206 0.0 0.0 -0.0 0.0 -0.0 3.10333 -5.67294 -1.86469 -15.5764 -0.322087 -2.36132 16.7606 13.7155 2.48783 17.7522 -0.0 -0.0 0.0 0.0 0.0 
3433.02 721.116 -1529.07 -13.734 70.7105 14.2353 1.84601 -0.247742 0.479037 1.84609 -0.277722 0.462302 1.84381 -0.355836 0.405257 1.8437 -0.287369 0.456368 -24.5447 19.4833 -0.619855 -27.9712 37.6735 10.6274 -0.0 0.0 -0.0 -4.83697 20.6951 -4.63506 -25.9153 -16.5875 77.4106 0.921642 -24.5389 0.20044 25.3199 0.187142 -3.20277 0.0973487 21.8016 9.32642 -0.0 0.0 -0.0 13.5971 24.0087 -27.2873 0.0989169 28.8682 -58.4949 2.10495 46.1927 -0.89776 26.5362 -0.160358 3.35584 6.12205 -27.4681 -53.1517 0.0 0.0 0.0 23.0756 -4.38275 -7.73083 -5.33255 0.182535 0.797738 25.6282 26.2816 -3.61339 -39.3745 0.0 0.0 -0.0 0.0 -0.0 2.82117 -8.3784 -1.45936 -14.3466 -0.320135 -2.17265 14.9163 18.593 2.31801 17.0158 -0.0 -0.0 0.0 0.0 0.0 
3413.4 719.005 -1528.39 -10.3459 70.2304 10.6419 1.33094 -0.0769375 0.557202 1.33111 -0.112237 0.551177 1.33003 -0.213561 0.520371 1.32967 -0.128699 0.547568 -26.5772 19.1823 -1.83316 -30.3687 37.4317 10.1562 -0.0 0.0 -0.0 -4.43902 21.2639 -3.91252 -26.3079 -16.0868 77.0917 0.747964 -20.3306 0.134114 25.7385 0.178291 -3.25552 0.0482027 22.4769 9.28493 -0.0 0.0 -0.0 13.2587 24.1307 -26.4849 1.22222 29.8862 -59.4022 2.31877 48.9506 -1.05563 26.5463 -0.160124 3.35711 5.96035 -25.7971 -51.5145 0.0 0.0 0.0 22.8894 -6.27263 -7.88917 -2.85257 0.106895 0.424682 20.8917 27.0335 -3.02204 -39.4553 0.0 0.0 -0.0 0.0 -0.0 1.89395 -7.1327 -1.08615 -17.9074 -0.314677 -2.71887 17.5454 11.7043 2.56156 21.326 -0.0 -0.0 0.0 0.0 0.0 
3406.65 717.945 -1528.75 -7.84476 69.9807 7.91551 1.01324 0.0445924 0.653234 1.01348 0.00293602 0.654747 1.01356 -0.123392 0.643022 1.01298 -0.0202922 0.654439 -24.3034 19.6171 0.254025 -27.654 37.5746 11.3875 -0.0 0.0 -0.0 -3.77827 21.2815 -2.95033 -26.3357 -16.853 76.2305 0.647117 -17.774 0.101187 24.558 0.20226 -3.10662 0.159993 21.8156 9.70287 -0.0 0.0 -0.0 12.9983 23.9685 -25.8965 2.04785 30.2685 -59.6996 2.4433 50.4282 -1.1506 28.0403 -0.122755 3.54429 5.69789 -24.7225 -48.9084 0.0 0.0 0.0 22.3932 -5.14178 -7.48232 -1.68173 0.0655824 0.249745 20.8407 28.425 -3.04296 -38.8994 0.0 0.0 -0.0 0.0 -0.0 1.09856 -6.24792 -0.527794 -18.2184 -0.312588 -2.76654 15.1247 11.4095 2.22928 22.0729 -0.0 -0.0 0.0 0.0 0.0 
3392.4 711.918 -1525.01 -6.41672 70.8475 6.99416 0.77984 0.0587528 0.713974 0.780123 0.0132029 0.716265 0.780363 -0.128052 0.70485 0.77967 -0.0151303 0.716227 -25.112 19.0692 -2.21532 -28.6108 37.5039 9.14435 -0.0 0.0 -0.0 -4.15692 21.1718 -3.5242 -25.7184 -16.9666 77.1499 0.572487 -15.8331 0.0796085 24.2471 0.208061 -3.06734 0.0337784 21.7145 8.91767 -0.0 0.0 -0.0 12.7367 23.4135 -25.3461 2.22212 29.3723 -59.5202 2.61337 52.3069 -1.28347 29.1501 -0.0918409 3.68268 5.62402 -23.4728 -48.1201 0.0 0.0 0.0 22.0212 -5.61962 -7.44788 -1.94371 0.075137 0.288815 20.1776 27.9145 -2.94404 -37.9807 0.0 0.0 -0.0 0.0 -0.0 0.36422 -5.50485 -0.317795 -21.2309 -0.278978 -3.2275 16.8283 9.44453 2.43406 22.7288 -0.0 -0.0 0.0 0.0 0.0 
3372.99 705.411 -1524.21 -3.44294 70.7887 3.03168 0.482659 0.283528 1.53356 0.483948 0.185381 1.54849 0.489507 -0.130952 1.55404 0.486156 0.116092 1.55522 -28.7195 19.0495 -3.04646 -32.9299 37.3681 9.79953 -0.0 0.0 -0.0 -4.37444 21.4493 -3.77451 -25.8521 -16.3926 76.7404 0.534643 -14.8342 0.0696007 23.5551 0.220208 -2.97977 -0.097683 21.9583 8.23251 -0.0 0.0 -0.0 12.6223 22.5744 -25.1603 3.55939 30.2091 -61.6349 2.50636 51.1429 -1.19946 30.1599 -0.0613867 3.80806 5.9391 -21.0589 -50.955 0.0 0.0 0.0 21.7072 -5.49421 -7.67038 -1.97484 0.0762602 0.29346 16.9928 27.7139 -2.50704 -40.1521 0.0 0.0 -0.0 0.0 -0.0 0.399805 4.18367 0.603227 -27.3136 -0.137552 -4.14979 19.3153 6.97375 2.72801 24.8881 -0.0 -0.0 0.0 0.0 0.0 
3359.81 704.412 -1525.49 -1.63727 70.1943 0.322134 0.211313 0.322391 2.15336 0.213874 0.184747 2.1695 0.222072 -0.267065 2.16091 0.215563 0.0774791 2.17597 -27.6589 18.6966 -2.77715 -31.4892 36.7499 9.33572 -0.0 0.0 -0.0 -4.0686 22.4735 -3.09715 -25.736 -15.6981 74.6389 0.509368 -14.1618 0.0632731 23.3617 0.223413 -2.95528 -0.295511 25.0576 8.25836 -0.0 0.0 -0.0 12.8702 24.1892 -25.577 3.70155 29.4532 -62.8055 2.60181 52.184 -1.27433 32.0138 0.000266377 4.03682 5.85409 -16.4933 -49.2765 0.0 0.0 0.0 20.5613 -5.36236 -7.22918 -1.50398 0.0589982 0.22326 16.471 28.1392 -2.44152 -39.635 0.0 0.0 -0.0 0.0 -0.0 -0.171969 7.33143 1.40968 -30.9936 -0.00472841 -4.69885 17.654 -1.36515 2.44895 28.3292 -0.0 -0.0 0.0 0.0 0.0 
3352.93 698.569 -1525.93 0.126275 67.2421 -1.97761 -0.0173827 0.808675 2.56088 -0.0139648 0.644138 2.60711 0.0177568 0.0829299 2.68417 0.0080593 0.505655 2.63745 -27.9743 19.188 -2.77452 -32.1031 37.6325 9.87837 -0.0 0.0 -0.0 -3.73417 21.3252 -2.87696 -24.7057 -14.117 75.1087 0.391152 -10.9662 0.0375475 23.3336 0.223872 -2.95172 -0.377067 28.0243 8.91894 -0.0 0.0 -0.0 13.0903 25.7428 -25.9159 4.0736 28.9397 -63.6499 2.68096 53.0119 -1.33721 30.6775 -0.0449194 3.87213 5.72651 -15.1301 -47.6866 0.0 0.0 0.0 20.6735 -4.54623 -7.80451 -2.484 0.0942765 0.369525 15.3035 28.9152 -2.28993 -39.0585 0.0 0.0 -0.0 0.0 -0.0 -0.606293 13.6383 1.02991 -34.4181 0.150351 -5.20133 22.3243 -8.90577 3.01646 30.2334 -0.0 -0.0 0.0 0.0 0.0 
3337.58 691.777 -1522.88 1.42624 67.7906 -3.77055 -0.234537 0.512811 2.9306 -0.229818 0.325374 2.95726 -0.210117 -0.314424 2.95845 -0.222296 0.156541 2.97098 -26.5191 19.1531 -3.41147 -30.4159 37.9882 8.7169 -0.0 0.0 -0.0 -4.01923 21.9994 -3.13563 -25.7158 -13.5806 74.7341 0.560481 -15.5173 0.0763647 22.9947 0.229268 -2.90877 -0.585486 27.706 7.64984 -0.0 0.0 -0.0 13.5747 26.1743 -26.9887 4.52003 27.7468 -63.8881 2.68094 53.0118 -1.3372 32.6217 0.0220913 4.11138 5.58862 -12.5749 -45.665 0.0 0.0 0.0 20.2321 -5.30628 -7.10535 -2.19566 0.084157 0.32643 14.2589 28.1948 -2.13114 -39.312 0.0 0.0 -0.0 0.0 -0.0 -1.34663 26.2766 -0.431547 -39.2133 0.417479 -5.88785 23.0418 -14.7192 3.12995 31.2121 -0.0 -0.0 0.0 0.0 0.0 
